<mxfile host="app.diagrams.net" modified="2024-05-10T06:29:48.709Z" agent="Mozilla/5.0 (Macintosh; Intel Mac OS X 10_15_7) AppleWebKit/537.36 (KHTML, like Gecko) Chrome/124.0.0.0 Safari/537.36" etag="uEPtu0YxirwQz_pCyycA" version="24.3.1" type="github">
  <diagram name="第 1 页" id="4ebATBG6LEv2Lpm6YKmM">
    <mxGraphModel dx="1185" dy="765" grid="1" gridSize="10" guides="1" tooltips="1" connect="1" arrows="1" fold="1" page="1" pageScale="1" pageWidth="827" pageHeight="1169" math="0" shadow="0">
      <root>
        <mxCell id="0" />
        <mxCell id="1" parent="0" />
        <mxCell id="6iENqD6peRZiHf8nuGPs-1" value="客户端 (浏览器)" style="text;html=1;align=center;verticalAlign=middle;resizable=0;points=[];autosize=1;strokeColor=none;fillColor=none;" parent="1" vertex="1">
          <mxGeometry x="180" y="190" width="110" height="30" as="geometry" />
        </mxCell>
        <mxCell id="6iENqD6peRZiHf8nuGPs-2" value="服务端" style="text;html=1;align=center;verticalAlign=middle;resizable=0;points=[];autosize=1;strokeColor=none;fillColor=none;" parent="1" vertex="1">
          <mxGeometry x="430" y="190" width="60" height="30" as="geometry" />
        </mxCell>
        <mxCell id="6iENqD6peRZiHf8nuGPs-4" value="" style="endArrow=none;dashed=1;html=1;rounded=0;" parent="1" target="6iENqD6peRZiHf8nuGPs-2" edge="1">
          <mxGeometry width="50" height="50" relative="1" as="geometry">
            <mxPoint x="460" y="540" as="sourcePoint" />
            <mxPoint x="440" y="370" as="targetPoint" />
          </mxGeometry>
        </mxCell>
        <mxCell id="6iENqD6peRZiHf8nuGPs-5" value="" style="endArrow=none;dashed=1;html=1;rounded=0;" parent="1" edge="1">
          <mxGeometry width="50" height="50" relative="1" as="geometry">
            <mxPoint x="230" y="540" as="sourcePoint" />
            <mxPoint x="230" y="220" as="targetPoint" />
          </mxGeometry>
        </mxCell>
        <mxCell id="6iENqD6peRZiHf8nuGPs-6" value="" style="endArrow=classic;html=1;rounded=0;" parent="1" edge="1">
          <mxGeometry width="50" height="50" relative="1" as="geometry">
            <mxPoint x="230" y="280" as="sourcePoint" />
            <mxPoint x="460" y="280" as="targetPoint" />
          </mxGeometry>
        </mxCell>
        <mxCell id="6iENqD6peRZiHf8nuGPs-7" value="" style="endArrow=classic;html=1;rounded=0;" parent="1" edge="1">
          <mxGeometry width="50" height="50" relative="1" as="geometry">
            <mxPoint x="460" y="380" as="sourcePoint" />
            <mxPoint x="230" y="380" as="targetPoint" />
          </mxGeometry>
        </mxCell>
        <mxCell id="6iENqD6peRZiHf8nuGPs-8" value="" style="endArrow=classic;html=1;rounded=0;" parent="1" edge="1">
          <mxGeometry width="50" height="50" relative="1" as="geometry">
            <mxPoint x="230" y="450" as="sourcePoint" />
            <mxPoint x="460" y="450" as="targetPoint" />
          </mxGeometry>
        </mxCell>
        <mxCell id="6iENqD6peRZiHf8nuGPs-9" value="" style="endArrow=classic;html=1;rounded=0;" parent="1" edge="1">
          <mxGeometry width="50" height="50" relative="1" as="geometry">
            <mxPoint x="460" y="530" as="sourcePoint" />
            <mxPoint x="230" y="530" as="targetPoint" />
          </mxGeometry>
        </mxCell>
        <mxCell id="6iENqD6peRZiHf8nuGPs-10" value="GET /old-url HTTP/1.1" style="text;html=1;align=center;verticalAlign=middle;resizable=0;points=[];autosize=1;strokeColor=none;fillColor=none;" parent="1" vertex="1">
          <mxGeometry x="230" y="256" width="140" height="30" as="geometry" />
        </mxCell>
        <mxCell id="6iENqD6peRZiHf8nuGPs-11" value="&lt;div&gt;GET /new-url HTTP/1.1&lt;/div&gt;" style="text;html=1;align=center;verticalAlign=middle;resizable=0;points=[];autosize=1;strokeColor=none;fillColor=none;" parent="1" vertex="1">
          <mxGeometry x="229" y="424" width="150" height="30" as="geometry" />
        </mxCell>
        <mxCell id="6iENqD6peRZiHf8nuGPs-12" value="第一次请求" style="text;html=1;align=center;verticalAlign=middle;resizable=0;points=[];autosize=1;strokeColor=none;fillColor=none;" parent="1" vertex="1">
          <mxGeometry x="140" y="256" width="80" height="30" as="geometry" />
        </mxCell>
        <mxCell id="6iENqD6peRZiHf8nuGPs-13" value="重定向后再次请求" style="text;html=1;align=center;verticalAlign=middle;resizable=0;points=[];autosize=1;strokeColor=none;fillColor=none;" parent="1" vertex="1">
          <mxGeometry x="110" y="430" width="120" height="30" as="geometry" />
        </mxCell>
        <mxCell id="6iENqD6peRZiHf8nuGPs-16" value="响应头：" style="text;html=1;align=center;verticalAlign=middle;resizable=0;points=[];autosize=1;strokeColor=none;fillColor=none;" parent="1" vertex="1">
          <mxGeometry x="261" y="320" width="70" height="30" as="geometry" />
        </mxCell>
        <mxCell id="6iENqD6peRZiHf8nuGPs-17" value="Location: /new-url" style="text;html=1;align=center;verticalAlign=middle;resizable=0;points=[];autosize=1;strokeColor=none;fillColor=none;" parent="1" vertex="1">
          <mxGeometry x="259" y="355" width="120" height="30" as="geometry" />
        </mxCell>
        <mxCell id="6iENqD6peRZiHf8nuGPs-21" style="edgeStyle=orthogonalEdgeStyle;rounded=0;orthogonalLoop=1;jettySize=auto;html=1;exitX=0.5;exitY=1;exitDx=0;exitDy=0;" parent="1" edge="1">
          <mxGeometry relative="1" as="geometry">
            <mxPoint x="620" y="535" as="sourcePoint" />
            <mxPoint x="620" y="535" as="targetPoint" />
          </mxGeometry>
        </mxCell>
        <mxCell id="6iENqD6peRZiHf8nuGPs-26" value="HTTP/1.1 301 Moved Permanently" style="text;html=1;align=center;verticalAlign=middle;resizable=0;points=[];autosize=1;strokeColor=none;fillColor=none;" parent="1" vertex="1">
          <mxGeometry x="259" y="338" width="210" height="30" as="geometry" />
        </mxCell>
        <mxCell id="6iENqD6peRZiHf8nuGPs-27" value="响应头：" style="text;html=1;align=center;verticalAlign=middle;resizable=0;points=[];autosize=1;strokeColor=none;fillColor=none;" parent="1" vertex="1">
          <mxGeometry x="329" y="480" width="70" height="30" as="geometry" />
        </mxCell>
        <mxCell id="6iENqD6peRZiHf8nuGPs-28" value="HTTP/1.1 200 OK" style="text;html=1;align=center;verticalAlign=middle;resizable=0;points=[];autosize=1;strokeColor=none;fillColor=none;" parent="1" vertex="1">
          <mxGeometry x="329" y="498" width="120" height="30" as="geometry" />
        </mxCell>
        <mxCell id="6iENqD6peRZiHf8nuGPs-29" value="&lt;font style=&quot;font-size: 14px;&quot;&gt;&lt;b&gt;HTTP 重定向原理&lt;/b&gt;&lt;/font&gt;" style="text;html=1;align=center;verticalAlign=middle;resizable=0;points=[];autosize=1;strokeColor=none;fillColor=none;" parent="1" vertex="1">
          <mxGeometry x="273" y="130" width="130" height="30" as="geometry" />
        </mxCell>
      </root>
    </mxGraphModel>
  </diagram>
</mxfile>
